<svg xmlns="http://www.w3.org/2000/svg" width="300" height="300" viewBox="0 0 100 100">
    <!-- Background with gradient -->
    <defs>
        <linearGradient id="bgGradient" x1="0%" y1="0%" x2="0%" y2="100%">
            <stop offset="0%" style="stop-color:#f0f0f0;stop-opacity:1" />
            <stop offset="100%" style="stop-color:#e6e6e6;stop-opacity:1" />
        </linearGradient>
    </defs>
    <rect width="100" height="100" fill="url(#bgGradient)"/>
    
    <!-- Road with texture and curves -->
    <path d="M 10 80 C 30 80 30 20 50 20 C 70 20 70 80 90 80" 
          stroke="#444" 
          stroke-width="20" 
          stroke-linecap="round"/>
    
    <!-- Road markings -->
    <path d="M 10 80 C 30 80 30 20 50 20 C 70 20 70 80 90 80" 
          stroke="#fff" 
          stroke-width="1" 
          stroke-dasharray="3,3" 
          fill="none"/>
    
    <!-- Collectible coins with animation -->
    <g>
        <rect x="40" y="10" width="6" height="10" fill="#FFD700">
            <animate attributeName="opacity" 
                     values="1;0.5;1" 
                     dur="1.5s" 
                     repeatCount="indefinite"/>
        </rect>
        <rect x="70" y="70" width="6" height="10" fill="#FFD700">
            <animate attributeName="opacity" 
                     values="1;0.5;1" 
                     dur="1.5s" 
                     repeatCount="indefinite"/>
        </rect>
    </g>
    
    <!-- Start and end points with glow effect -->
    <circle cx="10" cy="80" r="5" fill="green">
        <animate attributeName="r" 
                 values="5;5.5;5" 
                 dur="2s" 
                 repeatCount="indefinite"/>
    </circle>
    <circle cx="90" cy="80" r="5" fill="red">
        <animate attributeName="r" 
                 values="5;5.5;5" 
                 dur="2s" 
                 repeatCount="indefinite"/>
    </circle>
    
    <!-- Car with enhanced details -->
    <g transform="translate(0,0)">
        <!-- Car body -->
        <path d="M 20 75 h 10 v -5 h 15 v 5 h 10 v 10 h -35 z" 
              fill="#4A90E2" 
              stroke="#2171D1" 
              stroke-width="0.5"/>
        
        <!-- Car windows -->
        <path d="M 32 70 h 8 v 5 h -8 z" fill="#A5D3FF"/>
        <path d="M 42 70 h 8 v 5 h -8 z" fill="#A5D3FF"/>
        
        <!-- Wheels with rims -->
        <circle cx="25" cy="85" r="3.5" fill="#333"/>
        <circle cx="25" cy="85" r="1.5" fill="#666"/>
        <circle cx="45" cy="85" r="3.5" fill="#333"/>
        <circle cx="45" cy="85" r="1.5" fill="#666"/>
    </g>
</svg>
