<svg xmlns="http://www.w3.org/2000/svg" width="300" height="300" viewBox="0 0 100 100">
    <!-- Background with gradient -->
    <defs>
        <linearGradient id="bgGradient" x1="0%" y1="0%" x2="100%" y2="100%">
            <stop offset="0%" style="stop-color:#e6e6e6;stop-opacity:1" />
            <stop offset="100%" style="stop-color:#d9d9d9;stop-opacity:1" />
        </linearGradient>
        <!-- Glow filter for collectibles -->
        <filter id="glow" x="-50%" y="-50%" width="200%" height="200%">
            <feGaussianBlur stdDeviation="1" result="coloredBlur"/>
            <feMerge>
                <feMergeNode in="coloredBlur"/>
                <feMergeNode in="SourceGraphic"/>
            </feMerge>
        </filter>
    </defs>
    
    <!-- Background -->
    <rect width="100" height="100" fill="url(#bgGradient)"/>
    
    <!-- Roads with depth effect -->
    <path d="M 10 90 C 30 90 30 50 50 50 C 70 50 70 10 90 10" 
          stroke="#2b2b2b" 
          stroke-width="15.5" 
          stroke-linecap="round"/>
    <path d="M 10 10 C 30 10 30 50 50 50 C 70 50 70 90 90 90" 
          stroke="#2b2b2b" 
          stroke-width="15.5" 
          stroke-linecap="round"/>
          
    <!-- Road markings -->
    <path d="M 10 90 C 30 90 30 50 50 50 C 70 50 70 10 90 10" 
          stroke="#fff" 
          stroke-width="0.5" 
          stroke-dasharray="2,2" 
          fill="none"/>
    <path d="M 10 10 C 30 10 30 50 50 50 C 70 50 70 90 90 90" 
          stroke="#fff" 
          stroke-width="0.5" 
          stroke-dasharray="2,2" 
          fill="none"/>
    
    <!-- Collectible points with animation -->
    <g filter="url(#glow)">
        <circle cx="50" cy="50" r="4" fill="#FF4444">
            <animate attributeName="r" 
                     values="4;4.5;4" 
                     dur="1s" 
                     repeatCount="indefinite"/>
        </circle>
        <circle cx="30" cy="30" r="4" fill="#FF4444">
            <animate attributeName="r" 
                     values="4;4.5;4" 
                     dur="1s" 
                     repeatCount="indefinite"
                     begin="0.3s"/>
        </circle>
        <circle cx="70" cy="70" r="4" fill="#FF4444">
            <animate attributeName="r" 
                     values="4;4.5;4" 
                     dur="1s" 
                     repeatCount="indefinite"
                     begin="0.6s"/>
        </circle>
    </g>
    
    <!-- Start and end points with effects -->
    <circle cx="10" cy="90" r="5" fill="green">
        <animate attributeName="fill-opacity" 
                 values="1;0.7;1" 
                 dur="1.5s" 
                 repeatCount="indefinite"/>
    </circle>
    <circle cx="90" cy="10" r="5" fill="red">
        <animate attributeName="fill-opacity" 
                 values="1;0.7;1" 
                 dur="1.5s" 
                 repeatCount="indefinite"/>
    </circle>
    
    <!-- Car with enhanced details -->
    <g>
        <!-- Car shadow -->
        <path d="M 21 86 h 33 v 9 h -33 z" 
              fill="rgba(0,0,0,0.2)"/>
        
        <!-- Car body -->
        <path d="M 20 85 h 10 v -5 h 15 v 5 h 10 v 10 h -35 z" 
              fill="#4A90E2" 
              stroke="#2171D1" 
              stroke-width="0.5"/>
        
        <!-- Car windows -->
        <path d="M 32 80 h 8 v 5 h -8 z" fill="#A5D3FF"/>
        <path d="M 42 80 h 8 v 5 h -8 z" fill="#A5D3FF"/>
        
        <!-- Wheels with enhanced detail -->
        <circle cx="25" cy="95" r="3.5" fill="#333"/>
        <circle cx="25" cy="95" r="1.5" fill="#666"/>
        <circle cx="45" cy="95" r="3.5" fill="#333"/>
        <circle cx="45" cy="95" r="1.5" fill="#666"/>
    </g>
</svg>
